<mxfile host="app.diagrams.net" agent="Mozilla/5.0 (Windows NT 10.0; Win64; x64) AppleWebKit/537.36 (KHTML, like Gecko) Chrome/127.0.0.0 Safari/537.36" version="24.7.6">
  <diagram id="R2lEEEUBdFMjLlhIrx00" name="Page-1">
    <mxGraphModel grid="1" page="1" gridSize="10" guides="1" tooltips="1" connect="1" arrows="1" fold="1" pageScale="1" pageWidth="850" pageHeight="1100" math="0" shadow="0" extFonts="Permanent Marker^https://fonts.googleapis.com/css?family=Permanent+Marker">
      <root>
        <mxCell id="0" />
        <mxCell id="1" parent="0" />
        <mxCell id="k8_jNvHrLggQzwSoWiRg-73" value="" style="rounded=0;whiteSpace=wrap;html=1;fillColor=none;" vertex="1" parent="1">
          <mxGeometry x="30" y="30" width="860" height="260" as="geometry" />
        </mxCell>
        <mxCell id="k8_jNvHrLggQzwSoWiRg-87" style="edgeStyle=orthogonalEdgeStyle;rounded=0;orthogonalLoop=1;jettySize=auto;html=1;exitX=0.5;exitY=0;exitDx=0;exitDy=0;entryX=0.5;entryY=1;entryDx=0;entryDy=0;endArrow=none;endFill=0;" edge="1" parent="1" source="k8_jNvHrLggQzwSoWiRg-58" target="k8_jNvHrLggQzwSoWiRg-86">
          <mxGeometry relative="1" as="geometry" />
        </mxCell>
        <mxCell id="k8_jNvHrLggQzwSoWiRg-90" value="1" style="edgeLabel;html=1;align=center;verticalAlign=middle;resizable=0;points=[];" connectable="0" vertex="1" parent="k8_jNvHrLggQzwSoWiRg-87">
          <mxGeometry x="0.38" relative="1" as="geometry">
            <mxPoint x="10" y="-2" as="offset" />
          </mxGeometry>
        </mxCell>
        <mxCell id="k8_jNvHrLggQzwSoWiRg-58" value="" style="rounded=0;whiteSpace=wrap;html=1;fillColor=none;" vertex="1" parent="1">
          <mxGeometry x="30" y="450" width="860" height="230" as="geometry" />
        </mxCell>
        <mxCell id="k8_jNvHrLggQzwSoWiRg-37" style="edgeStyle=orthogonalEdgeStyle;rounded=0;orthogonalLoop=1;jettySize=auto;html=1;exitX=0;exitY=0.5;exitDx=0;exitDy=0;entryX=1;entryY=0.5;entryDx=0;entryDy=0;endArrow=none;endFill=0;" edge="1" parent="1" source="pmkh8e25fpv3-B7UxwSU-1" target="k8_jNvHrLggQzwSoWiRg-35">
          <mxGeometry relative="1" as="geometry">
            <Array as="points">
              <mxPoint x="140" y="560" />
              <mxPoint x="140" y="590" />
            </Array>
          </mxGeometry>
        </mxCell>
        <mxCell id="k8_jNvHrLggQzwSoWiRg-38" style="edgeStyle=orthogonalEdgeStyle;rounded=0;orthogonalLoop=1;jettySize=auto;html=1;exitX=0;exitY=0.5;exitDx=0;exitDy=0;entryX=1;entryY=0.5;entryDx=0;entryDy=0;endArrow=none;endFill=0;" edge="1" parent="1" source="pmkh8e25fpv3-B7UxwSU-1" target="k8_jNvHrLggQzwSoWiRg-36">
          <mxGeometry relative="1" as="geometry">
            <Array as="points">
              <mxPoint x="140" y="560" />
              <mxPoint x="140" y="530" />
            </Array>
          </mxGeometry>
        </mxCell>
        <mxCell id="k8_jNvHrLggQzwSoWiRg-39" style="edgeStyle=orthogonalEdgeStyle;rounded=0;orthogonalLoop=1;jettySize=auto;html=1;exitX=1;exitY=0.5;exitDx=0;exitDy=0;entryX=0;entryY=0.5;entryDx=0;entryDy=0;endArrow=none;endFill=0;" edge="1" parent="1" source="pmkh8e25fpv3-B7UxwSU-1" target="k8_jNvHrLggQzwSoWiRg-34">
          <mxGeometry relative="1" as="geometry">
            <Array as="points">
              <mxPoint x="280" y="560" />
              <mxPoint x="280" y="530" />
            </Array>
          </mxGeometry>
        </mxCell>
        <mxCell id="k8_jNvHrLggQzwSoWiRg-40" style="edgeStyle=orthogonalEdgeStyle;rounded=0;orthogonalLoop=1;jettySize=auto;html=1;exitX=1;exitY=0.5;exitDx=0;exitDy=0;entryX=0;entryY=0.5;entryDx=0;entryDy=0;endArrow=none;endFill=0;" edge="1" parent="1" source="pmkh8e25fpv3-B7UxwSU-1" target="k8_jNvHrLggQzwSoWiRg-33">
          <mxGeometry relative="1" as="geometry">
            <Array as="points">
              <mxPoint x="280" y="560" />
              <mxPoint x="280" y="590" />
            </Array>
          </mxGeometry>
        </mxCell>
        <mxCell id="k8_jNvHrLggQzwSoWiRg-59" style="edgeStyle=orthogonalEdgeStyle;rounded=0;orthogonalLoop=1;jettySize=auto;html=1;exitX=1;exitY=0.5;exitDx=0;exitDy=0;entryX=0;entryY=0.5;entryDx=0;entryDy=0;endArrow=none;endFill=0;" edge="1" parent="1" source="pmkh8e25fpv3-B7UxwSU-1" target="k8_jNvHrLggQzwSoWiRg-51">
          <mxGeometry relative="1" as="geometry" />
        </mxCell>
        <mxCell id="k8_jNvHrLggQzwSoWiRg-69" style="edgeStyle=orthogonalEdgeStyle;rounded=0;orthogonalLoop=1;jettySize=auto;html=1;exitX=1;exitY=0.5;exitDx=0;exitDy=0;entryX=0;entryY=0.5;entryDx=0;entryDy=0;endArrow=none;endFill=0;" edge="1" parent="1" source="pmkh8e25fpv3-B7UxwSU-1">
          <mxGeometry relative="1" as="geometry">
            <Array as="points">
              <mxPoint x="280" y="560" />
              <mxPoint x="280" y="640" />
            </Array>
            <mxPoint x="290" y="640" as="targetPoint" />
          </mxGeometry>
        </mxCell>
        <mxCell id="k8_jNvHrLggQzwSoWiRg-71" style="edgeStyle=orthogonalEdgeStyle;rounded=0;orthogonalLoop=1;jettySize=auto;html=1;exitX=0;exitY=0.5;exitDx=0;exitDy=0;entryX=1;entryY=0.5;entryDx=0;entryDy=0;endArrow=none;endFill=0;" edge="1" parent="1" source="pmkh8e25fpv3-B7UxwSU-1" target="k8_jNvHrLggQzwSoWiRg-61">
          <mxGeometry relative="1" as="geometry">
            <Array as="points">
              <mxPoint x="140" y="560" />
              <mxPoint x="140" y="640" />
            </Array>
          </mxGeometry>
        </mxCell>
        <mxCell id="pmkh8e25fpv3-B7UxwSU-1" value="Profesor" style="rounded=0;whiteSpace=wrap;html=1;" vertex="1" parent="1">
          <mxGeometry x="150" y="530" width="120" height="60" as="geometry" />
        </mxCell>
        <mxCell id="k8_jNvHrLggQzwSoWiRg-107" style="edgeStyle=orthogonalEdgeStyle;rounded=0;orthogonalLoop=1;jettySize=auto;html=1;exitX=1;exitY=0.5;exitDx=0;exitDy=0;entryX=0;entryY=0.5;entryDx=0;entryDy=0;endArrow=none;endFill=0;" edge="1" parent="1" source="pmkh8e25fpv3-B7UxwSU-3" target="k8_jNvHrLggQzwSoWiRg-84">
          <mxGeometry relative="1" as="geometry">
            <Array as="points">
              <mxPoint x="1030" y="370" />
              <mxPoint x="1030" y="400" />
            </Array>
          </mxGeometry>
        </mxCell>
        <mxCell id="k8_jNvHrLggQzwSoWiRg-108" style="edgeStyle=orthogonalEdgeStyle;rounded=0;orthogonalLoop=1;jettySize=auto;html=1;exitX=1;exitY=0.5;exitDx=0;exitDy=0;entryX=0;entryY=0.5;entryDx=0;entryDy=0;endArrow=none;endFill=0;" edge="1" parent="1" source="pmkh8e25fpv3-B7UxwSU-3" target="k8_jNvHrLggQzwSoWiRg-83">
          <mxGeometry relative="1" as="geometry">
            <Array as="points">
              <mxPoint x="1030" y="370" />
              <mxPoint x="1030" y="340" />
            </Array>
          </mxGeometry>
        </mxCell>
        <mxCell id="pmkh8e25fpv3-B7UxwSU-3" value="Curso" style="rounded=0;whiteSpace=wrap;html=1;" vertex="1" parent="1">
          <mxGeometry x="900" y="340" width="120" height="60" as="geometry" />
        </mxCell>
        <mxCell id="k8_jNvHrLggQzwSoWiRg-48" style="edgeStyle=orthogonalEdgeStyle;rounded=0;orthogonalLoop=1;jettySize=auto;html=1;exitX=0.5;exitY=1;exitDx=0;exitDy=0;entryX=0.5;entryY=0;entryDx=0;entryDy=0;endArrow=none;endFill=0;" edge="1" parent="1" source="pmkh8e25fpv3-B7UxwSU-4" target="k8_jNvHrLggQzwSoWiRg-47">
          <mxGeometry relative="1" as="geometry" />
        </mxCell>
        <mxCell id="k8_jNvHrLggQzwSoWiRg-49" style="edgeStyle=orthogonalEdgeStyle;rounded=0;orthogonalLoop=1;jettySize=auto;html=1;exitX=1;exitY=0.5;exitDx=0;exitDy=0;entryX=0;entryY=0.5;entryDx=0;entryDy=0;endArrow=none;endFill=0;" edge="1" parent="1" source="pmkh8e25fpv3-B7UxwSU-4" target="k8_jNvHrLggQzwSoWiRg-45">
          <mxGeometry relative="1" as="geometry">
            <Array as="points">
              <mxPoint x="780" y="560" />
              <mxPoint x="780" y="590" />
            </Array>
          </mxGeometry>
        </mxCell>
        <mxCell id="k8_jNvHrLggQzwSoWiRg-50" style="edgeStyle=orthogonalEdgeStyle;rounded=0;orthogonalLoop=1;jettySize=auto;html=1;exitX=1;exitY=0.5;exitDx=0;exitDy=0;entryX=0;entryY=0.5;entryDx=0;entryDy=0;endArrow=none;endFill=0;" edge="1" parent="1" source="pmkh8e25fpv3-B7UxwSU-4" target="k8_jNvHrLggQzwSoWiRg-46">
          <mxGeometry relative="1" as="geometry">
            <Array as="points">
              <mxPoint x="780" y="560" />
              <mxPoint x="780" y="530" />
            </Array>
          </mxGeometry>
        </mxCell>
        <mxCell id="k8_jNvHrLggQzwSoWiRg-97" style="edgeStyle=orthogonalEdgeStyle;rounded=0;orthogonalLoop=1;jettySize=auto;html=1;exitX=0.5;exitY=0;exitDx=0;exitDy=0;entryX=0;entryY=0.5;entryDx=0;entryDy=0;endArrow=none;endFill=0;" edge="1" parent="1" source="pmkh8e25fpv3-B7UxwSU-4" target="k8_jNvHrLggQzwSoWiRg-94">
          <mxGeometry relative="1" as="geometry">
            <Array as="points">
              <mxPoint x="710" y="480" />
              <mxPoint x="960" y="480" />
            </Array>
          </mxGeometry>
        </mxCell>
        <mxCell id="k8_jNvHrLggQzwSoWiRg-100" value="n" style="edgeLabel;html=1;align=center;verticalAlign=middle;resizable=0;points=[];" connectable="0" vertex="1" parent="k8_jNvHrLggQzwSoWiRg-97">
          <mxGeometry x="0.9235" y="-1" relative="1" as="geometry">
            <mxPoint x="-19" y="-9" as="offset" />
          </mxGeometry>
        </mxCell>
        <mxCell id="pmkh8e25fpv3-B7UxwSU-4" value="Ma&lt;span style=&quot;background-color: initial;&quot;&gt;teria&lt;/span&gt;" style="rounded=0;whiteSpace=wrap;html=1;" vertex="1" parent="1">
          <mxGeometry x="650" y="530" width="120" height="60" as="geometry" />
        </mxCell>
        <mxCell id="k8_jNvHrLggQzwSoWiRg-27" style="edgeStyle=orthogonalEdgeStyle;rounded=0;orthogonalLoop=1;jettySize=auto;html=1;exitX=1;exitY=0.5;exitDx=0;exitDy=0;entryX=0;entryY=0.5;entryDx=0;entryDy=0;endArrow=none;endFill=0;" edge="1" parent="1" source="pmkh8e25fpv3-B7UxwSU-5" target="k8_jNvHrLggQzwSoWiRg-24">
          <mxGeometry relative="1" as="geometry">
            <Array as="points">
              <mxPoint x="280" y="220" />
              <mxPoint x="280" y="250" />
            </Array>
          </mxGeometry>
        </mxCell>
        <mxCell id="k8_jNvHrLggQzwSoWiRg-31" style="edgeStyle=orthogonalEdgeStyle;rounded=0;orthogonalLoop=1;jettySize=auto;html=1;exitX=0;exitY=0.5;exitDx=0;exitDy=0;entryX=1;entryY=0.5;entryDx=0;entryDy=0;endArrow=none;endFill=0;" edge="1" parent="1" source="pmkh8e25fpv3-B7UxwSU-5" target="k8_jNvHrLggQzwSoWiRg-22">
          <mxGeometry relative="1" as="geometry">
            <Array as="points">
              <mxPoint x="140" y="220" />
              <mxPoint x="140" y="190" />
            </Array>
          </mxGeometry>
        </mxCell>
        <mxCell id="k8_jNvHrLggQzwSoWiRg-32" style="edgeStyle=orthogonalEdgeStyle;rounded=0;orthogonalLoop=1;jettySize=auto;html=1;exitX=1;exitY=0.5;exitDx=0;exitDy=0;entryX=0;entryY=0.5;entryDx=0;entryDy=0;endArrow=none;endFill=0;" edge="1" parent="1" source="pmkh8e25fpv3-B7UxwSU-5" target="k8_jNvHrLggQzwSoWiRg-25">
          <mxGeometry relative="1" as="geometry">
            <Array as="points">
              <mxPoint x="280" y="220" />
              <mxPoint x="280" y="190" />
            </Array>
          </mxGeometry>
        </mxCell>
        <mxCell id="k8_jNvHrLggQzwSoWiRg-75" style="edgeStyle=orthogonalEdgeStyle;rounded=0;orthogonalLoop=1;jettySize=auto;html=1;exitX=1;exitY=0.5;exitDx=0;exitDy=0;entryX=0;entryY=0.5;entryDx=0;entryDy=0;endArrow=none;endFill=0;" edge="1" parent="1" source="pmkh8e25fpv3-B7UxwSU-5" target="k8_jNvHrLggQzwSoWiRg-74">
          <mxGeometry relative="1" as="geometry" />
        </mxCell>
        <mxCell id="k8_jNvHrLggQzwSoWiRg-77" value="n" style="edgeLabel;html=1;align=center;verticalAlign=middle;resizable=0;points=[];" connectable="0" vertex="1" parent="k8_jNvHrLggQzwSoWiRg-75">
          <mxGeometry x="0.872" relative="1" as="geometry">
            <mxPoint y="-10" as="offset" />
          </mxGeometry>
        </mxCell>
        <mxCell id="pmkh8e25fpv3-B7UxwSU-5" value="Calificaciones" style="rounded=0;whiteSpace=wrap;html=1;" vertex="1" parent="1">
          <mxGeometry x="150" y="190" width="120" height="60" as="geometry" />
        </mxCell>
        <mxCell id="k8_jNvHrLggQzwSoWiRg-9" style="edgeStyle=orthogonalEdgeStyle;rounded=0;orthogonalLoop=1;jettySize=auto;html=1;exitX=1;exitY=0.5;exitDx=0;exitDy=0;entryX=0;entryY=0.5;entryDx=0;entryDy=0;endArrow=none;endFill=0;" edge="1" parent="1" source="pmkh8e25fpv3-B7UxwSU-6" target="k8_jNvHrLggQzwSoWiRg-5">
          <mxGeometry relative="1" as="geometry">
            <Array as="points">
              <mxPoint x="780" y="220" />
              <mxPoint x="780" y="250" />
            </Array>
          </mxGeometry>
        </mxCell>
        <mxCell id="k8_jNvHrLggQzwSoWiRg-10" style="edgeStyle=orthogonalEdgeStyle;rounded=0;orthogonalLoop=1;jettySize=auto;html=1;exitX=1;exitY=0.5;exitDx=0;exitDy=0;entryX=0;entryY=0.5;entryDx=0;entryDy=0;endArrow=none;endFill=0;" edge="1" parent="1" source="pmkh8e25fpv3-B7UxwSU-6" target="k8_jNvHrLggQzwSoWiRg-4">
          <mxGeometry relative="1" as="geometry">
            <Array as="points">
              <mxPoint x="780" y="220" />
              <mxPoint x="780" y="190" />
            </Array>
          </mxGeometry>
        </mxCell>
        <mxCell id="k8_jNvHrLggQzwSoWiRg-12" style="edgeStyle=orthogonalEdgeStyle;rounded=0;orthogonalLoop=1;jettySize=auto;html=1;exitX=1;exitY=0.5;exitDx=0;exitDy=0;entryX=0;entryY=0.5;entryDx=0;entryDy=0;endArrow=none;endFill=0;" edge="1" parent="1" source="pmkh8e25fpv3-B7UxwSU-6" target="k8_jNvHrLggQzwSoWiRg-1">
          <mxGeometry relative="1" as="geometry">
            <Array as="points">
              <mxPoint x="780" y="220" />
              <mxPoint x="780" y="130" />
            </Array>
          </mxGeometry>
        </mxCell>
        <mxCell id="k8_jNvHrLggQzwSoWiRg-13" style="edgeStyle=orthogonalEdgeStyle;rounded=0;orthogonalLoop=1;jettySize=auto;html=1;exitX=1;exitY=0.5;exitDx=0;exitDy=0;entryX=0;entryY=0.5;entryDx=0;entryDy=0;endArrow=none;endFill=0;" edge="1" parent="1" source="pmkh8e25fpv3-B7UxwSU-6" target="k8_jNvHrLggQzwSoWiRg-2">
          <mxGeometry relative="1" as="geometry">
            <Array as="points">
              <mxPoint x="780" y="220" />
              <mxPoint x="780" y="70" />
            </Array>
          </mxGeometry>
        </mxCell>
        <mxCell id="k8_jNvHrLggQzwSoWiRg-16" style="edgeStyle=orthogonalEdgeStyle;rounded=0;orthogonalLoop=1;jettySize=auto;html=1;exitX=0;exitY=0.5;exitDx=0;exitDy=0;entryX=1;entryY=0.5;entryDx=0;entryDy=0;endArrow=none;endFill=0;" edge="1" parent="1" source="pmkh8e25fpv3-B7UxwSU-6" target="k8_jNvHrLggQzwSoWiRg-6">
          <mxGeometry relative="1" as="geometry">
            <Array as="points">
              <mxPoint x="640" y="220" />
              <mxPoint x="640" y="250" />
            </Array>
          </mxGeometry>
        </mxCell>
        <mxCell id="k8_jNvHrLggQzwSoWiRg-17" style="edgeStyle=orthogonalEdgeStyle;rounded=0;orthogonalLoop=1;jettySize=auto;html=1;exitX=0;exitY=0.5;exitDx=0;exitDy=0;entryX=1;entryY=0.5;entryDx=0;entryDy=0;endArrow=none;endFill=0;" edge="1" parent="1" source="pmkh8e25fpv3-B7UxwSU-6" target="k8_jNvHrLggQzwSoWiRg-3">
          <mxGeometry relative="1" as="geometry">
            <Array as="points">
              <mxPoint x="640" y="220" />
              <mxPoint x="640" y="170" />
            </Array>
          </mxGeometry>
        </mxCell>
        <mxCell id="k8_jNvHrLggQzwSoWiRg-18" style="edgeStyle=orthogonalEdgeStyle;rounded=0;orthogonalLoop=1;jettySize=auto;html=1;exitX=0;exitY=0.5;exitDx=0;exitDy=0;entryX=1;entryY=0.5;entryDx=0;entryDy=0;endArrow=none;endFill=0;" edge="1" parent="1" source="pmkh8e25fpv3-B7UxwSU-6" target="k8_jNvHrLggQzwSoWiRg-7">
          <mxGeometry relative="1" as="geometry">
            <Array as="points">
              <mxPoint x="640" y="220" />
              <mxPoint x="640" y="90" />
            </Array>
          </mxGeometry>
        </mxCell>
        <mxCell id="k8_jNvHrLggQzwSoWiRg-76" style="edgeStyle=orthogonalEdgeStyle;rounded=0;orthogonalLoop=1;jettySize=auto;html=1;exitX=0;exitY=0.5;exitDx=0;exitDy=0;entryX=1;entryY=0.5;entryDx=0;entryDy=0;endArrow=none;endFill=0;" edge="1" parent="1" source="pmkh8e25fpv3-B7UxwSU-6" target="k8_jNvHrLggQzwSoWiRg-74">
          <mxGeometry relative="1" as="geometry" />
        </mxCell>
        <mxCell id="k8_jNvHrLggQzwSoWiRg-81" value="1" style="edgeLabel;html=1;align=center;verticalAlign=middle;resizable=0;points=[];" connectable="0" vertex="1" parent="k8_jNvHrLggQzwSoWiRg-76">
          <mxGeometry x="0.76" y="1" relative="1" as="geometry">
            <mxPoint x="-8" y="-11" as="offset" />
          </mxGeometry>
        </mxCell>
        <mxCell id="k8_jNvHrLggQzwSoWiRg-91" style="edgeStyle=orthogonalEdgeStyle;rounded=0;orthogonalLoop=1;jettySize=auto;html=1;exitX=0.5;exitY=1;exitDx=0;exitDy=0;entryX=0.5;entryY=0;entryDx=0;entryDy=0;endArrow=none;endFill=0;" edge="1" parent="1" source="pmkh8e25fpv3-B7UxwSU-6" target="k8_jNvHrLggQzwSoWiRg-85">
          <mxGeometry relative="1" as="geometry" />
        </mxCell>
        <mxCell id="k8_jNvHrLggQzwSoWiRg-106" value="n" style="edgeLabel;html=1;align=center;verticalAlign=middle;resizable=0;points=[];" connectable="0" vertex="1" parent="k8_jNvHrLggQzwSoWiRg-91">
          <mxGeometry x="0.73" relative="1" as="geometry">
            <mxPoint x="-9" y="1" as="offset" />
          </mxGeometry>
        </mxCell>
        <mxCell id="pmkh8e25fpv3-B7UxwSU-6" value="Alumno" style="rounded=0;whiteSpace=wrap;html=1;" vertex="1" parent="1">
          <mxGeometry x="650" y="190" width="120" height="60" as="geometry" />
        </mxCell>
        <mxCell id="k8_jNvHrLggQzwSoWiRg-1" value="Apellido" style="ellipse;whiteSpace=wrap;html=1;" vertex="1" parent="1">
          <mxGeometry x="790" y="110" width="80" height="40" as="geometry" />
        </mxCell>
        <mxCell id="k8_jNvHrLggQzwSoWiRg-2" value="Nombre" style="ellipse;whiteSpace=wrap;html=1;" vertex="1" parent="1">
          <mxGeometry x="790" y="50" width="80" height="40" as="geometry" />
        </mxCell>
        <mxCell id="k8_jNvHrLggQzwSoWiRg-3" value="Email" style="ellipse;whiteSpace=wrap;html=1;" vertex="1" parent="1">
          <mxGeometry x="550" y="150" width="80" height="40" as="geometry" />
        </mxCell>
        <mxCell id="k8_jNvHrLggQzwSoWiRg-4" value="Edad" style="ellipse;whiteSpace=wrap;html=1;" vertex="1" parent="1">
          <mxGeometry x="790" y="170" width="80" height="40" as="geometry" />
        </mxCell>
        <mxCell id="k8_jNvHrLggQzwSoWiRg-5" value="F. Nacimiento" style="ellipse;whiteSpace=wrap;html=1;" vertex="1" parent="1">
          <mxGeometry x="790" y="230" width="80" height="40" as="geometry" />
        </mxCell>
        <mxCell id="k8_jNvHrLggQzwSoWiRg-6" value="FaceID" style="ellipse;whiteSpace=wrap;html=1;" vertex="1" parent="1">
          <mxGeometry x="550" y="230" width="80" height="40" as="geometry" />
        </mxCell>
        <mxCell id="k8_jNvHrLggQzwSoWiRg-7" value="&lt;u&gt;DNI&lt;/u&gt;" style="ellipse;whiteSpace=wrap;html=1;" vertex="1" parent="1">
          <mxGeometry x="550" y="70" width="80" height="40" as="geometry" />
        </mxCell>
        <mxCell id="k8_jNvHrLggQzwSoWiRg-26" style="edgeStyle=orthogonalEdgeStyle;rounded=0;orthogonalLoop=1;jettySize=auto;html=1;exitX=1;exitY=0.5;exitDx=0;exitDy=0;entryX=0;entryY=0.5;entryDx=0;entryDy=0;endArrow=none;endFill=0;" edge="1" parent="1" source="k8_jNvHrLggQzwSoWiRg-21" target="pmkh8e25fpv3-B7UxwSU-5">
          <mxGeometry relative="1" as="geometry">
            <Array as="points">
              <mxPoint x="140" y="250" />
              <mxPoint x="140" y="220" />
            </Array>
          </mxGeometry>
        </mxCell>
        <mxCell id="k8_jNvHrLggQzwSoWiRg-21" value="&lt;u&gt;ID&lt;/u&gt;" style="ellipse;whiteSpace=wrap;html=1;" vertex="1" parent="1">
          <mxGeometry x="50" y="230" width="80" height="40" as="geometry" />
        </mxCell>
        <mxCell id="k8_jNvHrLggQzwSoWiRg-22" value="Fecha" style="ellipse;whiteSpace=wrap;html=1;" vertex="1" parent="1">
          <mxGeometry x="50" y="170" width="80" height="40" as="geometry" />
        </mxCell>
        <mxCell id="k8_jNvHrLggQzwSoWiRg-24" value="Nota" style="ellipse;whiteSpace=wrap;html=1;" vertex="1" parent="1">
          <mxGeometry x="290" y="230" width="80" height="40" as="geometry" />
        </mxCell>
        <mxCell id="k8_jNvHrLggQzwSoWiRg-25" value="Final?" style="ellipse;whiteSpace=wrap;html=1;" vertex="1" parent="1">
          <mxGeometry x="290" y="170" width="80" height="40" as="geometry" />
        </mxCell>
        <mxCell id="k8_jNvHrLggQzwSoWiRg-33" value="Apellido" style="ellipse;whiteSpace=wrap;html=1;" vertex="1" parent="1">
          <mxGeometry x="290" y="570" width="80" height="40" as="geometry" />
        </mxCell>
        <mxCell id="k8_jNvHrLggQzwSoWiRg-34" value="Nombre" style="ellipse;whiteSpace=wrap;html=1;" vertex="1" parent="1">
          <mxGeometry x="290" y="510" width="80" height="40" as="geometry" />
        </mxCell>
        <mxCell id="k8_jNvHrLggQzwSoWiRg-35" value="Email" style="ellipse;whiteSpace=wrap;html=1;" vertex="1" parent="1">
          <mxGeometry x="50" y="570" width="80" height="40" as="geometry" />
        </mxCell>
        <mxCell id="k8_jNvHrLggQzwSoWiRg-36" value="&lt;u&gt;DNI&lt;/u&gt;" style="ellipse;whiteSpace=wrap;html=1;" vertex="1" parent="1">
          <mxGeometry x="50" y="510" width="80" height="40" as="geometry" />
        </mxCell>
        <mxCell id="k8_jNvHrLggQzwSoWiRg-45" value="&lt;u&gt;ID&lt;/u&gt;" style="ellipse;whiteSpace=wrap;html=1;" vertex="1" parent="1">
          <mxGeometry x="790" y="570" width="80" height="40" as="geometry" />
        </mxCell>
        <mxCell id="k8_jNvHrLggQzwSoWiRg-46" value="Horas C." style="ellipse;whiteSpace=wrap;html=1;" vertex="1" parent="1">
          <mxGeometry x="790" y="510" width="80" height="40" as="geometry" />
        </mxCell>
        <mxCell id="k8_jNvHrLggQzwSoWiRg-47" value="Nombre" style="ellipse;whiteSpace=wrap;html=1;" vertex="1" parent="1">
          <mxGeometry x="670" y="610" width="80" height="40" as="geometry" />
        </mxCell>
        <mxCell id="k8_jNvHrLggQzwSoWiRg-53" style="edgeStyle=orthogonalEdgeStyle;rounded=0;orthogonalLoop=1;jettySize=auto;html=1;exitX=1;exitY=0.5;exitDx=0;exitDy=0;entryX=0;entryY=0.5;entryDx=0;entryDy=0;endArrow=none;endFill=0;" edge="1" parent="1" source="k8_jNvHrLggQzwSoWiRg-51" target="pmkh8e25fpv3-B7UxwSU-4">
          <mxGeometry relative="1" as="geometry" />
        </mxCell>
        <mxCell id="k8_jNvHrLggQzwSoWiRg-51" value="Dicta" style="rhombus;whiteSpace=wrap;html=1;" vertex="1" parent="1">
          <mxGeometry x="449" y="520" width="80" height="80" as="geometry" />
        </mxCell>
        <mxCell id="k8_jNvHrLggQzwSoWiRg-56" value="n" style="edgeLabel;html=1;align=center;verticalAlign=middle;resizable=0;points=[];" connectable="0" vertex="1" parent="1">
          <mxGeometry x="462.0033333333335" y="510" as="geometry">
            <mxPoint x="73" y="41" as="offset" />
          </mxGeometry>
        </mxCell>
        <mxCell id="k8_jNvHrLggQzwSoWiRg-60" value="1" style="edgeLabel;html=1;align=center;verticalAlign=middle;resizable=0;points=[];" connectable="0" vertex="1" parent="1">
          <mxGeometry x="370.0033333333335" y="510" as="geometry">
            <mxPoint x="73" y="41" as="offset" />
          </mxGeometry>
        </mxCell>
        <mxCell id="k8_jNvHrLggQzwSoWiRg-61" value="FaceID" style="ellipse;whiteSpace=wrap;html=1;" vertex="1" parent="1">
          <mxGeometry x="50" y="620" width="80" height="40" as="geometry" />
        </mxCell>
        <mxCell id="k8_jNvHrLggQzwSoWiRg-63" value="Telefono" style="ellipse;whiteSpace=wrap;html=1;" vertex="1" parent="1">
          <mxGeometry x="290" y="620" width="80" height="40" as="geometry" />
        </mxCell>
        <mxCell id="k8_jNvHrLggQzwSoWiRg-74" value="Tienen" style="rhombus;whiteSpace=wrap;html=1;" vertex="1" parent="1">
          <mxGeometry x="420" y="180" width="80" height="80" as="geometry" />
        </mxCell>
        <mxCell id="k8_jNvHrLggQzwSoWiRg-83" value="Año" style="ellipse;whiteSpace=wrap;html=1;" vertex="1" parent="1">
          <mxGeometry x="1040" y="320" width="80" height="40" as="geometry" />
        </mxCell>
        <mxCell id="k8_jNvHrLggQzwSoWiRg-84" value="&lt;u&gt;ID&lt;/u&gt;" style="ellipse;whiteSpace=wrap;html=1;" vertex="1" parent="1">
          <mxGeometry x="1040" y="380" width="80" height="40" as="geometry" />
        </mxCell>
        <mxCell id="k8_jNvHrLggQzwSoWiRg-101" style="edgeStyle=orthogonalEdgeStyle;rounded=0;orthogonalLoop=1;jettySize=auto;html=1;exitX=1;exitY=0.5;exitDx=0;exitDy=0;entryX=0;entryY=0.5;entryDx=0;entryDy=0;endArrow=none;endFill=0;" edge="1" parent="1" source="k8_jNvHrLggQzwSoWiRg-85" target="pmkh8e25fpv3-B7UxwSU-3">
          <mxGeometry relative="1" as="geometry" />
        </mxCell>
        <mxCell id="k8_jNvHrLggQzwSoWiRg-85" value="Pertenece" style="rhombus;whiteSpace=wrap;html=1;" vertex="1" parent="1">
          <mxGeometry x="670" y="330" width="80" height="80" as="geometry" />
        </mxCell>
        <mxCell id="k8_jNvHrLggQzwSoWiRg-88" style="edgeStyle=orthogonalEdgeStyle;rounded=0;orthogonalLoop=1;jettySize=auto;html=1;exitX=0.5;exitY=0;exitDx=0;exitDy=0;entryX=0.5;entryY=1;entryDx=0;entryDy=0;endArrow=none;endFill=0;" edge="1" parent="1" source="k8_jNvHrLggQzwSoWiRg-86" target="k8_jNvHrLggQzwSoWiRg-73">
          <mxGeometry relative="1" as="geometry" />
        </mxCell>
        <mxCell id="k8_jNvHrLggQzwSoWiRg-89" value="n" style="edgeLabel;html=1;align=center;verticalAlign=middle;resizable=0;points=[];" connectable="0" vertex="1" parent="k8_jNvHrLggQzwSoWiRg-88">
          <mxGeometry x="-0.32" relative="1" as="geometry">
            <mxPoint x="10" y="4" as="offset" />
          </mxGeometry>
        </mxCell>
        <mxCell id="k8_jNvHrLggQzwSoWiRg-86" value="Califica" style="rhombus;whiteSpace=wrap;html=1;" vertex="1" parent="1">
          <mxGeometry x="420" y="330" width="80" height="80" as="geometry" />
        </mxCell>
        <mxCell id="k8_jNvHrLggQzwSoWiRg-98" style="edgeStyle=orthogonalEdgeStyle;rounded=0;orthogonalLoop=1;jettySize=auto;html=1;exitX=0.5;exitY=0;exitDx=0;exitDy=0;entryX=0.5;entryY=1;entryDx=0;entryDy=0;endArrow=none;endFill=0;" edge="1" parent="1" source="k8_jNvHrLggQzwSoWiRg-94" target="pmkh8e25fpv3-B7UxwSU-3">
          <mxGeometry relative="1" as="geometry" />
        </mxCell>
        <mxCell id="k8_jNvHrLggQzwSoWiRg-99" value="1" style="edgeLabel;html=1;align=center;verticalAlign=middle;resizable=0;points=[];" connectable="0" vertex="1" parent="k8_jNvHrLggQzwSoWiRg-98">
          <mxGeometry x="-0.4714" y="2" relative="1" as="geometry">
            <mxPoint x="-5" as="offset" />
          </mxGeometry>
        </mxCell>
        <mxCell id="k8_jNvHrLggQzwSoWiRg-94" value="Tiene" style="rhombus;whiteSpace=wrap;html=1;" vertex="1" parent="1">
          <mxGeometry x="920" y="440" width="80" height="80" as="geometry" />
        </mxCell>
        <mxCell id="k8_jNvHrLggQzwSoWiRg-104" style="edgeStyle=orthogonalEdgeStyle;rounded=0;orthogonalLoop=1;jettySize=auto;html=1;exitX=1;exitY=0.5;exitDx=0;exitDy=0;entryX=0;entryY=0.5;entryDx=0;entryDy=0;endArrow=none;endFill=0;" edge="1" parent="1" source="k8_jNvHrLggQzwSoWiRg-102" target="k8_jNvHrLggQzwSoWiRg-85">
          <mxGeometry relative="1" as="geometry" />
        </mxCell>
        <mxCell id="k8_jNvHrLggQzwSoWiRg-105" value="1" style="edgeLabel;html=1;align=center;verticalAlign=middle;resizable=0;points=[];" connectable="0" vertex="1" parent="k8_jNvHrLggQzwSoWiRg-104">
          <mxGeometry x="0.44" y="1" relative="1" as="geometry">
            <mxPoint x="96" y="-9" as="offset" />
          </mxGeometry>
        </mxCell>
        <mxCell id="k8_jNvHrLggQzwSoWiRg-102" value="Repitió?" style="ellipse;whiteSpace=wrap;html=1;" vertex="1" parent="1">
          <mxGeometry x="550" y="350" width="80" height="40" as="geometry" />
        </mxCell>
        <mxCell id="6_fZnPyAqWgWQQ5S0gIv-15" style="edgeStyle=orthogonalEdgeStyle;rounded=0;orthogonalLoop=1;jettySize=auto;html=1;exitX=0;exitY=1;exitDx=0;exitDy=0;entryX=1;entryY=0.5;entryDx=0;entryDy=0;endArrow=none;endFill=0;" edge="1" parent="1" source="6_fZnPyAqWgWQQ5S0gIv-1" target="6_fZnPyAqWgWQQ5S0gIv-5">
          <mxGeometry relative="1" as="geometry">
            <Array as="points">
              <mxPoint x="-240" y="370" />
              <mxPoint x="-250" y="370" />
              <mxPoint x="-250" y="440" />
            </Array>
          </mxGeometry>
        </mxCell>
        <mxCell id="6_fZnPyAqWgWQQ5S0gIv-16" style="edgeStyle=orthogonalEdgeStyle;rounded=0;orthogonalLoop=1;jettySize=auto;html=1;exitX=0;exitY=0.5;exitDx=0;exitDy=0;entryX=1;entryY=0.5;entryDx=0;entryDy=0;endArrow=none;endFill=0;" edge="1" parent="1" source="6_fZnPyAqWgWQQ5S0gIv-1" target="6_fZnPyAqWgWQQ5S0gIv-3">
          <mxGeometry relative="1" as="geometry">
            <Array as="points">
              <mxPoint x="-250" y="370" />
              <mxPoint x="-250" y="390" />
            </Array>
          </mxGeometry>
        </mxCell>
        <mxCell id="6_fZnPyAqWgWQQ5S0gIv-1" value="User" style="rounded=0;whiteSpace=wrap;html=1;" vertex="1" parent="1">
          <mxGeometry x="-240" y="340" width="120" height="60" as="geometry" />
        </mxCell>
        <mxCell id="6_fZnPyAqWgWQQ5S0gIv-2" value="&lt;u&gt;ID&lt;/u&gt;" style="ellipse;whiteSpace=wrap;html=1;" vertex="1" parent="1">
          <mxGeometry x="-352" y="310" width="80" height="40" as="geometry" />
        </mxCell>
        <mxCell id="6_fZnPyAqWgWQQ5S0gIv-3" value="Password" style="ellipse;whiteSpace=wrap;html=1;" vertex="1" parent="1">
          <mxGeometry x="-350" y="370" width="80" height="40" as="geometry" />
        </mxCell>
        <mxCell id="6_fZnPyAqWgWQQ5S0gIv-5" value="Last_login" style="ellipse;whiteSpace=wrap;html=1;" vertex="1" parent="1">
          <mxGeometry x="-352" y="420" width="80" height="40" as="geometry" />
        </mxCell>
        <mxCell id="6_fZnPyAqWgWQQ5S0gIv-6" value="Is_superuser" style="ellipse;whiteSpace=wrap;html=1;" vertex="1" parent="1">
          <mxGeometry x="-91" y="403" width="80" height="40" as="geometry" />
        </mxCell>
        <mxCell id="6_fZnPyAqWgWQQ5S0gIv-7" value="Username" style="ellipse;whiteSpace=wrap;html=1;" vertex="1" parent="1">
          <mxGeometry x="-92" y="349" width="80" height="40" as="geometry" />
        </mxCell>
        <mxCell id="6_fZnPyAqWgWQQ5S0gIv-8" value="Last_name" style="ellipse;whiteSpace=wrap;html=1;" vertex="1" parent="1">
          <mxGeometry x="-91" y="300" width="80" height="40" as="geometry" />
        </mxCell>
        <mxCell id="6_fZnPyAqWgWQQ5S0gIv-9" value="Email" style="ellipse;whiteSpace=wrap;html=1;" vertex="1" parent="1">
          <mxGeometry x="-95" y="249" width="80" height="40" as="geometry" />
        </mxCell>
        <mxCell id="6_fZnPyAqWgWQQ5S0gIv-10" value="Is_staff" style="ellipse;whiteSpace=wrap;html=1;" vertex="1" parent="1">
          <mxGeometry x="-350" y="249" width="80" height="40" as="geometry" />
        </mxCell>
        <mxCell id="6_fZnPyAqWgWQQ5S0gIv-11" value="Is_active" style="ellipse;whiteSpace=wrap;html=1;" vertex="1" parent="1">
          <mxGeometry x="-270" y="210" width="80" height="40" as="geometry" />
        </mxCell>
        <mxCell id="6_fZnPyAqWgWQQ5S0gIv-13" value="Date_joined" style="ellipse;whiteSpace=wrap;html=1;" vertex="1" parent="1">
          <mxGeometry x="-171" y="210" width="80" height="40" as="geometry" />
        </mxCell>
        <mxCell id="6_fZnPyAqWgWQQ5S0gIv-14" value="First_name" style="ellipse;whiteSpace=wrap;html=1;" vertex="1" parent="1">
          <mxGeometry x="-221" y="442" width="80" height="40" as="geometry" />
        </mxCell>
        <mxCell id="6_fZnPyAqWgWQQ5S0gIv-18" style="edgeStyle=orthogonalEdgeStyle;rounded=0;orthogonalLoop=1;jettySize=auto;html=1;exitX=0.25;exitY=1;exitDx=0;exitDy=0;endArrow=none;endFill=0;" edge="1" parent="1">
          <mxGeometry relative="1" as="geometry">
            <mxPoint x="-180" y="442" as="targetPoint" />
            <Array as="points">
              <mxPoint x="-180" y="400" />
              <mxPoint x="-180" y="442" />
            </Array>
            <mxPoint x="-223" y="400" as="sourcePoint" />
          </mxGeometry>
        </mxCell>
        <mxCell id="6_fZnPyAqWgWQQ5S0gIv-21" style="edgeStyle=orthogonalEdgeStyle;rounded=0;orthogonalLoop=1;jettySize=auto;html=1;exitX=0;exitY=0.5;exitDx=0;exitDy=0;endArrow=none;endFill=0;entryX=1;entryY=0.5;entryDx=0;entryDy=0;" edge="1" parent="1" target="6_fZnPyAqWgWQQ5S0gIv-2">
          <mxGeometry relative="1" as="geometry">
            <mxPoint x="-240" y="369.75" as="sourcePoint" />
            <mxPoint x="-260" y="330" as="targetPoint" />
            <Array as="points">
              <mxPoint x="-250" y="370" />
              <mxPoint x="-250" y="332" />
            </Array>
          </mxGeometry>
        </mxCell>
        <mxCell id="6_fZnPyAqWgWQQ5S0gIv-22" style="edgeStyle=orthogonalEdgeStyle;rounded=0;orthogonalLoop=1;jettySize=auto;html=1;endArrow=none;endFill=0;entryX=1;entryY=0.5;entryDx=0;entryDy=0;" edge="1" parent="1" target="6_fZnPyAqWgWQQ5S0gIv-10">
          <mxGeometry relative="1" as="geometry">
            <mxPoint x="-240" y="370" as="sourcePoint" />
            <mxPoint x="-250" y="270" as="targetPoint" />
            <Array as="points">
              <mxPoint x="-250" y="370" />
              <mxPoint x="-250" y="270" />
            </Array>
          </mxGeometry>
        </mxCell>
        <mxCell id="joe1WCi2KHZKQevoDmOq-4" style="edgeStyle=orthogonalEdgeStyle;rounded=0;orthogonalLoop=1;jettySize=auto;html=1;endArrow=none;endFill=0;exitX=1;exitY=0.5;exitDx=0;exitDy=0;entryX=0;entryY=0.5;entryDx=0;entryDy=0;" edge="1" parent="1" target="6_fZnPyAqWgWQQ5S0gIv-9">
          <mxGeometry relative="1" as="geometry">
            <mxPoint x="-120" y="356" as="sourcePoint" />
            <mxPoint x="-100" y="266" as="targetPoint" />
            <Array as="points">
              <mxPoint x="-110" y="356" />
              <mxPoint x="-110" y="266" />
              <mxPoint x="-95" y="266" />
            </Array>
          </mxGeometry>
        </mxCell>
        <mxCell id="joe1WCi2KHZKQevoDmOq-5" style="edgeStyle=orthogonalEdgeStyle;rounded=0;orthogonalLoop=1;jettySize=auto;html=1;endArrow=none;endFill=0;entryX=0;entryY=0.5;entryDx=0;entryDy=0;" edge="1" parent="1" target="6_fZnPyAqWgWQQ5S0gIv-8">
          <mxGeometry relative="1" as="geometry">
            <mxPoint x="-110" y="356" as="sourcePoint" />
            <mxPoint x="-100" y="320" as="targetPoint" />
            <Array as="points">
              <mxPoint x="-110" y="320" />
            </Array>
          </mxGeometry>
        </mxCell>
        <mxCell id="joe1WCi2KHZKQevoDmOq-6" style="edgeStyle=orthogonalEdgeStyle;rounded=0;orthogonalLoop=1;jettySize=auto;html=1;endArrow=none;endFill=0;exitX=1;exitY=0.25;exitDx=0;exitDy=0;entryX=0;entryY=0.5;entryDx=0;entryDy=0;" edge="1" parent="1" target="6_fZnPyAqWgWQQ5S0gIv-7">
          <mxGeometry relative="1" as="geometry">
            <mxPoint x="-120" y="356" as="sourcePoint" />
            <mxPoint x="-110" y="370" as="targetPoint" />
            <Array as="points">
              <mxPoint x="-110" y="356" />
              <mxPoint x="-110" y="369" />
            </Array>
          </mxGeometry>
        </mxCell>
        <mxCell id="joe1WCi2KHZKQevoDmOq-7" style="edgeStyle=orthogonalEdgeStyle;rounded=0;orthogonalLoop=1;jettySize=auto;html=1;endArrow=none;endFill=0;entryX=0.5;entryY=0;entryDx=0;entryDy=0;" edge="1" parent="1">
          <mxGeometry relative="1" as="geometry">
            <mxPoint x="-230" y="250" as="sourcePoint" />
            <mxPoint x="-180" y="340" as="targetPoint" />
            <Array as="points">
              <mxPoint x="-230" y="292" />
              <mxPoint x="-180" y="292" />
            </Array>
          </mxGeometry>
        </mxCell>
        <mxCell id="joe1WCi2KHZKQevoDmOq-9" style="edgeStyle=orthogonalEdgeStyle;rounded=0;orthogonalLoop=1;jettySize=auto;html=1;endArrow=none;endFill=0;" edge="1" parent="1">
          <mxGeometry relative="1" as="geometry">
            <mxPoint x="-131" y="250" as="sourcePoint" />
            <mxPoint x="-180" y="292" as="targetPoint" />
            <Array as="points">
              <mxPoint x="-131" y="292" />
              <mxPoint x="-171" y="292" />
            </Array>
          </mxGeometry>
        </mxCell>
        <mxCell id="joe1WCi2KHZKQevoDmOq-11" style="edgeStyle=orthogonalEdgeStyle;rounded=0;orthogonalLoop=1;jettySize=auto;html=1;endArrow=none;endFill=0;" edge="1" parent="1">
          <mxGeometry relative="1" as="geometry">
            <mxPoint x="-110" y="367" as="sourcePoint" />
            <mxPoint x="-91" y="430" as="targetPoint" />
            <Array as="points">
              <mxPoint x="-110" y="430" />
            </Array>
          </mxGeometry>
        </mxCell>
      </root>
    </mxGraphModel>
  </diagram>
</mxfile>
